<svg width="504" height="208" viewBox="0 0 504 208" fill="none" xmlns="http://www.w3.org/2000/svg">
<path d="M3.168 136.208C3.168 129.552 4.608 123.632 7.488 118.448C10.368 113.2 14.368 109.136 19.488 106.256C24.672 103.312 30.528 101.84 37.056 101.84C45.056 101.84 51.904 103.952 57.6 108.176C63.296 112.4 67.104 118.16 69.024 125.456H50.976C49.632 122.64 47.712 120.496 45.216 119.024C42.784 117.552 40 116.816 36.864 116.816C31.808 116.816 27.712 118.576 24.576 122.096C21.44 125.616 19.872 130.32 19.872 136.208C19.872 142.096 21.44 146.8 24.576 150.32C27.712 153.84 31.808 155.6 36.864 155.6C40 155.6 42.784 154.864 45.216 153.392C47.712 151.92 49.632 149.776 50.976 146.96H69.024C67.104 154.256 63.296 160.016 57.6 164.24C51.904 168.4 45.056 170.48 37.056 170.48C30.528 170.48 24.672 169.04 19.488 166.16C14.368 163.216 10.368 159.152 7.488 153.968C4.608 148.784 3.168 142.864 3.168 136.208ZM103.461 170.768C98.213 170.768 93.477 169.648 89.253 167.408C85.093 165.168 81.797 161.968 79.365 157.808C76.997 153.648 75.813 148.784 75.813 143.216C75.813 137.712 77.029 132.88 79.461 128.72C81.893 124.496 85.221 121.264 89.445 119.024C93.669 116.784 98.405 115.664 103.653 115.664C108.901 115.664 113.637 116.784 117.861 119.024C122.085 121.264 125.413 124.496 127.845 128.72C130.277 132.88 131.493 137.712 131.493 143.216C131.493 148.72 130.245 153.584 127.749 157.808C125.317 161.968 121.957 165.168 117.669 167.408C113.445 169.648 108.709 170.768 103.461 170.768ZM103.461 156.56C106.597 156.56 109.253 155.408 111.429 153.104C113.669 150.8 114.789 147.504 114.789 143.216C114.789 138.928 113.701 135.632 111.525 133.328C109.413 131.024 106.789 129.872 103.653 129.872C100.453 129.872 97.797 131.024 95.685 133.328C93.573 135.568 92.517 138.864 92.517 143.216C92.517 147.504 93.541 150.8 95.589 153.104C97.701 155.408 100.325 156.56 103.461 156.56ZM172.842 115.856C179.114 115.856 184.106 117.904 187.818 122C191.594 126.032 193.482 131.6 193.482 138.704V170H177.162V140.912C177.162 137.328 176.234 134.544 174.378 132.56C172.522 130.576 170.026 129.584 166.89 129.584C163.754 129.584 161.258 130.576 159.402 132.56C157.546 134.544 156.618 137.328 156.618 140.912V170H140.202V116.432H156.618V123.536C158.282 121.168 160.522 119.312 163.338 117.968C166.154 116.56 169.322 115.856 172.842 115.856ZM237.53 115.856C243.802 115.856 248.794 117.904 252.506 122C256.282 126.032 258.17 131.6 258.17 138.704V170H241.85V140.912C241.85 137.328 240.922 134.544 239.066 132.56C237.21 130.576 234.714 129.584 231.578 129.584C228.442 129.584 225.946 130.576 224.09 132.56C222.234 134.544 221.306 137.328 221.306 140.912V170H204.89V116.432H221.306V123.536C222.97 121.168 225.21 119.312 228.026 117.968C230.842 116.56 234.01 115.856 237.53 115.856ZM320.073 142.352C320.073 143.888 319.977 145.488 319.785 147.152H282.633C282.889 150.48 283.945 153.04 285.801 154.832C287.721 156.56 290.057 157.424 292.809 157.424C296.905 157.424 299.753 155.696 301.353 152.24H318.825C317.929 155.76 316.297 158.928 313.929 161.744C311.625 164.56 308.713 166.768 305.193 168.368C301.673 169.968 297.737 170.768 293.385 170.768C288.137 170.768 283.465 169.648 279.369 167.408C275.273 165.168 272.073 161.968 269.769 157.808C267.465 153.648 266.313 148.784 266.313 143.216C266.313 137.648 267.433 132.784 269.673 128.624C271.977 124.464 275.177 121.264 279.273 119.024C283.369 116.784 288.073 115.664 293.385 115.664C298.569 115.664 303.177 116.752 307.209 118.928C311.241 121.104 314.377 124.208 316.617 128.24C318.921 132.272 320.073 136.976 320.073 142.352ZM303.273 138.032C303.273 135.216 302.313 132.976 300.393 131.312C298.473 129.648 296.073 128.816 293.193 128.816C290.441 128.816 288.105 129.616 286.185 131.216C284.329 132.816 283.177 135.088 282.729 138.032H303.273ZM325.469 143.216C325.469 137.648 326.589 132.784 328.829 128.624C331.133 124.464 334.301 121.264 338.333 119.024C342.429 116.784 347.101 115.664 352.349 115.664C359.069 115.664 364.669 117.424 369.149 120.944C373.693 124.464 376.669 129.424 378.077 135.824H360.605C359.133 131.728 356.285 129.68 352.061 129.68C349.053 129.68 346.653 130.864 344.861 133.232C343.069 135.536 342.173 138.864 342.173 143.216C342.173 147.568 343.069 150.928 344.861 153.296C346.653 155.6 349.053 156.752 352.061 156.752C356.285 156.752 359.133 154.704 360.605 150.608H378.077C376.669 156.88 373.693 161.808 369.149 165.392C364.605 168.976 359.005 170.768 352.349 170.768C347.101 170.768 342.429 169.648 338.333 167.408C334.301 165.168 331.133 161.968 328.829 157.808C326.589 153.648 325.469 148.784 325.469 143.216ZM416.714 156.08V170H408.362C402.41 170 397.77 168.56 394.442 165.68C391.114 162.736 389.45 157.968 389.45 151.376V130.064H382.922V116.432H389.45V103.376H405.866V116.432H416.618V130.064H405.866V151.568C405.866 153.168 406.25 154.32 407.018 155.024C407.786 155.728 409.066 156.08 410.858 156.08H416.714Z" fill="#00ADEF"/>
<path d="M398 44.3981C417.304 41.9502 456.33 49.6436 458 100" stroke="#00ADEF" stroke-width="19"/>
<path d="M413 10.5403C439.061 7.21816 491.746 17.6591 494 86" stroke="#00ADEF" stroke-width="19"/>
</svg>
